<svg xmlns="http://www.w3.org/2000/svg" xmlns:xlink="http://www.w3.org/1999/xlink" width="13" height="12.145" viewBox="0 0 13 12.145">
  <defs>
    <clipPath id="clip-path">
      <rect id="Rectangle_34" data-name="Rectangle 34" width="13" height="12.145" transform="translate(0 0)" fill="none"/>
    </clipPath>
  </defs>
  <g id="Group_213" data-name="Group 213" transform="translate(0 -0.001)">
    <g id="Group_212" data-name="Group 212" transform="translate(0 0.001)" clip-path="url(#clip-path)">
      <path id="Path_1208" data-name="Path 1208" d="M0,138.432V130.8H13v.189c0,2.363,0,4.727,0,7.09a1.224,1.224,0,0,1-.694,1.15,3.788,3.788,0,0,1-.508.192H.914a.306.306,0,0,0-.059-.026,1.012,1.012,0,0,1-.772-.688c-.033-.091-.055-.186-.083-.279m10.4-5.3c0-.157,0-.313,0-.47a.324.324,0,0,0-.355-.36q-.477,0-.954,0a.3.3,0,0,0-.341.315q-.014.51,0,1.02a.3.3,0,0,0,.328.313q.5.008.994,0a.3.3,0,0,0,.329-.335c0-.161,0-.322,0-.483m0,3.638c0-.161,0-.322,0-.482a.311.311,0,0,0-.329-.341q-.5-.008-.992,0a.3.3,0,0,0-.33.324c-.007.335-.007.67,0,1a.307.307,0,0,0,.336.32q.489,0,.979,0a.3.3,0,0,0,.335-.33c0-.165,0-.331,0-.5m-7.26-4.468H2.671a.323.323,0,0,0-.361.353q0,.476,0,.952a.309.309,0,0,0,.326.343q.489.009.979,0a.33.33,0,0,0,.346-.349q.01-.489,0-.979a.307.307,0,0,0-.336-.319c-.161,0-.322,0-.483,0m-.831,4.467c0,.161,0,.322,0,.483a.321.321,0,0,0,.343.344q.469,0,.939,0a.345.345,0,0,0,.369-.358c.007-.322.006-.644,0-.965a.3.3,0,0,0-.328-.326q-.5-.007-.992,0a.31.31,0,0,0-.331.339c0,.161,0,.322,0,.483m4.847-3.62h0c0-.174,0-.349,0-.523a.307.307,0,0,0-.331-.324q-.489,0-.979,0a.315.315,0,0,0-.339.333q0,.5,0,.992a.3.3,0,0,0,.3.321q.529.011,1.059,0a.262.262,0,0,0,.282-.289c.007-.169,0-.339,0-.509m0,3.63h0c0-.175.005-.349,0-.524a.291.291,0,0,0-.3-.307q-.517-.01-1.034,0a.3.3,0,0,0-.309.318q-.006.5,0,1.007a.308.308,0,0,0,.312.32c.345.006.69.005,1.034,0a.276.276,0,0,0,.3-.292c.008-.174,0-.349,0-.524" transform="translate(0 -127.282)" fill="#1a1818"/>
      <path id="Path_1209" data-name="Path 1209" d="M0,2.689V1A.418.418,0,0,0,.028.925,1.077,1.077,0,0,1,1.152,0c.308.014.618,0,.927,0h.193c0,.068,0,.117,0,.165,0,.336,0,.671,0,1.007a.4.4,0,1,0,.8,0c0-.34,0-.68,0-1.021V.013H9.558c0,.057,0,.105,0,.153,0,.336,0,.671,0,1.007a.4.4,0,1,0,.8-.005c0-.331,0-.662,0-.994V0H10.5c.345,0,.69,0,1.034,0a1.437,1.437,0,0,1,.823.245,1.184,1.184,0,0,1,.593,1.073c-.012.4,0,.806,0,1.208v.153H.174c-.058,0-.116,0-.174.006" transform="translate(0 0)" fill="#1a1818"/>
    </g>
  </g>
</svg>
