<svg xmlns="http://www.w3.org/2000/svg" width="21.366" height="21.35" viewBox="0 0 21.366 21.35">
  <g id="Group_188" data-name="Group 188" transform="translate(-297.317 -879.91)">
    <path id="Path_1195" data-name="Path 1195" d="M8.269,85.971c-.22-.06-.446-.1-.658-.183a3.229,3.229,0,0,1-2.075-2.256c-.014-.052-.031-.1-.051-.168H1.56a1.519,1.519,0,0,1-.993-2.7A5.76,5.76,0,0,0,2.6,76.346c.027-.854.006-1.71.007-2.565a6.026,6.026,0,0,1,4.575-5.855.659.659,0,1,1,.331,1.268,4.652,4.652,0,0,0-3.5,3.676,4.93,4.93,0,0,0-.1,1.009c-.014.807.007,1.615-.007,2.422a7.1,7.1,0,0,1-2.428,5.312.421.421,0,0,0-.147.294c.018.153.175.157.31.157q7.043,0,14.086-.006a.42.42,0,0,0,.306-.132c.094-.133-.035-.231-.134-.317a7.062,7.062,0,0,1-1.7-2.232.663.663,0,0,1,.262-.939.651.651,0,0,1,.907.355,5.988,5.988,0,0,0,1.49,1.911,1.518,1.518,0,0,1-1,2.66q-1.893,0-3.786,0c-.1,0-.186-.011-.227.131a3.2,3.2,0,0,1-2.693,2.443.319.319,0,0,0-.072.033ZM10.5,83.38H6.877a1.918,1.918,0,0,0,3.622,0" transform="translate(297.584 815.04)" fill="#9a9a9a" stroke="#9a9a9a" stroke-width="0.5"/>
    <path id="Path_1196" data-name="Path 1196" d="M245.655,6.187c-.052.257-.1.516-.157.771a5.627,5.627,0,1,1,.105-2.126c.015.1.034.2.051.3ZM240.01,9.978a4.339,4.339,0,1,0-4.334-4.345,4.345,4.345,0,0,0,4.334,4.345" transform="translate(72.777 880.168)" fill="#9a9a9a" stroke="#9a9a9a" stroke-width="0.5"/>
    <path id="Path_1197" data-name="Path 1197" d="M336.565,86.1c-.177,0-.319.009-.46,0a.652.652,0,0,1,0-1.3c.386-.016.773-.016,1.159,0a.641.641,0,0,1,.615.64q.013,1.749,0,3.5a.654.654,0,1,1-1.307-.039c-.007-.84,0-1.681,0-2.521V86.1" transform="translate(-24.216 798.847)" fill="red"/>
    <rect id="Rectangle_3" data-name="Rectangle 3" width="20.849" height="20.843" transform="translate(297.584 880.168)" fill="none"/>
  </g>
</svg>
