<svg id="Group_186" data-name="Group 186" xmlns="http://www.w3.org/2000/svg" xmlns:xlink="http://www.w3.org/1999/xlink" width="17.361" height="18.604" viewBox="0 0 17.361 18.604">
  <defs>
    <clipPath id="clip-path">
      <rect id="Rectangle_2" data-name="Rectangle 2" width="17.361" height="18.604" fill="#fff"/>
    </clipPath>
  </defs>
  <g id="Group_185" data-name="Group 185" clip-path="url(#clip-path)">
    <path id="Path_1192" data-name="Path 1192" d="M13.486,0h.31a.7.7,0,0,1,.467.779c-.013.151,0,.3,0,.462h.746A2.345,2.345,0,0,1,17.36,3.588q0,6.336,0,12.673A2.343,2.343,0,0,1,15.021,18.6q-6.335,0-12.671,0a2.222,2.222,0,0,1-2-1.141A5.587,5.587,0,0,1,0,16.588V3.256a.285.285,0,0,0,.034-.067A2.346,2.346,0,0,1,2.418,1.241H3.1c0-.171.011-.319,0-.465A.693.693,0,0,1,3.565,0h.31a.7.7,0,0,1,.467.776c-.013.151,0,.3,0,.452H8.061c0-.159.011-.307,0-.453A.693.693,0,0,1,8.525,0h.31A.7.7,0,0,1,9.3.776c-.013.151,0,.3,0,.452h3.722c0-.159.011-.307,0-.453A.693.693,0,0,1,13.486,0M11.465,8.062c.717,0,1.434,0,2.151,0a.619.619,0,1,0,.011-1.237q-2.16-.007-4.321,0a.612.612,0,0,0-.583.4.619.619,0,0,0,.611.833c.71.006,1.421,0,2.131,0m.01,4.34c-.7,0-1.408,0-2.112,0a.622.622,0,1,0-.009,1.24q2.122,0,4.243,0a.8.8,0,0,0,.366-.1.581.581,0,0,0,.272-.664.616.616,0,0,0-.629-.472c-.71,0-1.421,0-2.131,0M4.959,7.2c-.28-.283-.538-.552-.806-.812a.615.615,0,1,0-.87.869q.609.623,1.232,1.232a.6.6,0,0,0,.883.006c.621-.611,1.234-1.23,1.849-1.847a.587.587,0,0,0,.175-.493.575.575,0,0,0-.384-.513.6.6,0,0,0-.675.148c-.461.461-.92.923-1.4,1.41m0,5.58c-.27-.274-.525-.538-.786-.795a.616.616,0,1,0-.876.864q.6.614,1.219,1.218a.607.607,0,0,0,.9,0c.173-.165.338-.337.507-.506.433-.434.868-.866,1.3-1.3a.617.617,0,1,0-.865-.878c-.093.09-.183.182-.274.274L4.956,12.777" fill="#fff"/>
  </g>
</svg>
